{
  "accessors": [
    {
      "bufferView": 2,
      "componentType": 5126,
      "count": 15664,
      "max": [
        1.4737999439239502,
        3.9191000461578369,
        1.2834000587463379
      ],
      "min": [
        0,
        0,
        0
      ],
      "type": "VEC3"
    },
    {
      "bufferView": 2,
      "byteOffset": 187968,
      "componentType": 5126,
      "count": 15664,
      "max": [
        0.99997365474700928,
        1,
        0.9999995231628418
      ],
      "min": [
        -0.99999070167541504,
        -0.99999523162841797,
        -0.99994218349456787
      ],
      "type": "VEC3"
    },
    {
      "bufferView": 3,
      "componentType": 5126,
      "count": 15664,
      "max": [
        0.99999701976776123,
        0.99683874845504761,
        0.9999992847442627,
        1
      ],
      "min": [
        -0.99974405765533447,
        -0.9999658465385437,
        -0.99948334693908691,
        -1
      ],
      "type": "VEC4"
    },
    {
      "bufferView": 1,
      "componentType": 5126,
      "count": 15664,
      "max": [
        0.99790000915527344,
        0.99260002374649048
      ],
      "min": [
        0.0019000000320374966,
        0.00060000002849847078
      ],
      "type": "VEC2"
    },
    {
      "bufferView": 0,
      "componentType": 5125,
      "count": 89136,
      "max": [
        15663
      ],
      "min": [
        0
      ],
      "type": "SCALAR"
    }
  ],
  "asset": {
    "generator": "Sketchfab (OSG glTF plugin)",
    "version": "2.0"
  },
  "bufferViews": [
    {
      "buffer": 0,
      "byteLength": 356544,
      "byteOffset": 0,
      "name": "floatBufferViews",
      "target": 34963
    },
    {
      "buffer": 0,
      "byteLength": 125312,
      "byteOffset": 356544,
      "byteStride": 8,
      "name": "floatBufferViews",
      "target": 34962
    },
    {
      "buffer": 0,
      "byteLength": 375936,
      "byteOffset": 481856,
      "byteStride": 12,
      "name": "floatBufferViews",
      "target": 34962
    },
    {
      "buffer": 0,
      "byteLength": 250624,
      "byteOffset": 857792,
      "byteStride": 16,
      "name": "floatBufferViews",
      "target": 34962
    }
  ],
  "buffers": [
    {
      "byteLength": 1108416,
      "uri": "scene.bin"
    }
  ],
  "images": [
    {
      "uri": "https://raw.githubusercontent.com/jackllll/mao-model-upload/master/Scene%2520-%2520Root_baseColor.jpg"
    },
    {
      "uri": "https://raw.githubusercontent.com/jackllll/mao-model-upload/master/Scene%20-%20Root_normal.png"
    }
  ],
  "materials": [
    {
      "doubleSided": true,
      "name": "Scene - Root",
      "normalTexture": {
        "index": 1,
        "scale": 1,
        "texCoord": 0
      },
      "pbrMetallicRoughness": {
        "baseColorFactor": [
          1,
          1,
          1,
          1
        ],
        "baseColorTexture": {
          "index": 0,
          "texCoord": 0
        },
        "metallicFactor": 0,
        "roughnessFactor": 0.38852896339999998
      }
    }
  ],
  "meshes": [
    {
      "primitives": [
        {
          "attributes": {
            "NORMAL": 1,
            "POSITION": 0,
            "TANGENT": 2,
            "TEXCOORD_0": 3
          },
          "indices": 4,
          "material": 0,
          "mode": 4
        }
      ]
    }
  ],
  "nodes": [
    {
      "children": [
        1
      ],
      "name": "RootNode (gltf orientation matrix)",
      "rotation": [
        -0.70710678118654746,
        -0,
        -0,
        0.70710678118654757
      ]
    },
    {
      "children": [
        2
      ],
      "matrix": [
        1,
        0,
        0,
        0,
        0,
        0,
        -1,
        0,
        0,
        1,
        0,
        0,
        0,
        -2.0353546142578125,
        -1.898554801940918,
        1
      ],
      "name": "RootNode (model correction matrix)"
    },
    {
      "children": [
        3
      ],
      "matrix": [
        1,
        0,
        0,
        0,
        0,
        1,
        0,
        0,
        0,
        0,
        1,
        0,
        -0.75929999351501465,
        -3.9214000701904297,
        -0.56459999084472656,
        1
      ],
      "name": "mao04_15k.OBJ.cleaner.materialmerger.gles"
    },
    {
      "children": [
        5
      ],
      "name": ""
    },
    {
      "mesh": 0,
      "name": ""
    },
    {
      "children": [
        4
      ],
      "name": "Geode"
    }
  ],
  "samplers": [
    {
      "magFilter": 9729,
      "minFilter": 9987,
      "wrapS": 10497,
      "wrapT": 10497
    }
  ],
  "scene": 0,
  "scenes": [
    {
      "name": "OSG_Scene",
      "nodes": [
        0
      ]
    }
  ],
  "textures": [
    {
      "sampler": 0,
      "source": 0
    },
    {
      "sampler": 0,
      "source": 1
    }
  ]
}

